<svg xmlns="http://www.w3.org/2000/svg" viewBox="0 0 1200 720">
  <defs>
    <linearGradient id="bg" x1="0%" y1="0%" x2="100%" y2="100%">
      <stop offset="0%" stop-color="#2f1717"/>
      <stop offset="100%" stop-color="#8f452f"/>
    </linearGradient>
  </defs>
  <rect width="1200" height="720" fill="url(#bg)"/>
  <rect x="88" y="110" width="1024" height="500" rx="38" fill="#fff7ea" opacity="0.95"/>
  <rect x="142" y="168" width="330" height="176" rx="28" fill="#4a2320"/>
  <rect x="510" y="168" width="250" height="176" rx="28" fill="#d9a441"/>
  <rect x="798" y="168" width="260" height="176" rx="28" fill="#f0d6a1"/>
  <rect x="142" y="386" width="530" height="164" rx="28" fill="#f3e7d0"/>
  <rect x="712" y="386" width="346" height="164" rx="28" fill="#fbf6eb"/>
  <path d="M192 286c48-38 92-68 139-90 30 15 42 42 24 61-27 28-128 56-163 29-16-13-16-33 0-50z" fill="#d9a441"/>
  <path d="M560 300l58-96 63 60 53-78" fill="none" stroke="#fff8ed" stroke-width="22" stroke-linecap="round" stroke-linejoin="round"/>
  <circle cx="840" cy="257" r="48" fill="#fff8ed"/>
  <circle cx="938" cy="257" r="48" fill="#fff1d5"/>
  <circle cx="1036" cy="257" r="48" fill="#7a332b"/>
  <rect x="192" y="438" width="400" height="22" rx="11" fill="#7a332b"/>
  <rect x="192" y="486" width="298" height="22" rx="11" fill="#d9a441"/>
  <path d="M766 528c53-71 174-77 227-12" fill="none" stroke="#7a332b" stroke-width="22" stroke-linecap="round"/>
  <path d="M766 478c61-44 152-42 227 5" fill="none" stroke="#d9a441" stroke-width="22" stroke-linecap="round"/>
</svg>
