<svg xmlns="http://www.w3.org/2000/svg" viewBox="0 0 1200 720">
  <defs>
    <linearGradient id="bg" x1="0%" y1="0%" x2="100%" y2="100%">
      <stop offset="0%" stop-color="#3e221d"/>
      <stop offset="100%" stop-color="#c17a42"/>
    </linearGradient>
  </defs>
  <rect width="1200" height="720" fill="url(#bg)"/>
  <circle cx="970" cy="150" r="140" fill="#fff1d5" opacity="0.18"/>
  <rect x="84" y="98" width="1032" height="524" rx="40" fill="#fffaf0" opacity="0.95"/>
  <rect x="134" y="150" width="460" height="190" rx="30" fill="#4a2320"/>
  <rect x="628" y="150" width="438" height="190" rx="30" fill="#f4dfb6"/>
  <rect x="134" y="374" width="286" height="194" rx="28" fill="#f7ebd5"/>
  <rect x="452" y="374" width="292" height="194" rx="28" fill="#fffaf0"/>
  <rect x="776" y="374" width="290" height="194" rx="28" fill="#d9a441"/>
  <path d="M188 292l76-72 80 46 90-86" fill="none" stroke="#f5d397" stroke-width="24" stroke-linecap="round" stroke-linejoin="round"/>
  <path d="M682 300h262" stroke="#7a332b" stroke-width="22" stroke-linecap="round"/>
  <path d="M682 254h214" stroke="#c17a42" stroke-width="22" stroke-linecap="round"/>
  <path d="M682 208h164" stroke="#4a2320" stroke-width="22" stroke-linecap="round"/>
  <circle cx="277" cy="469" r="55" fill="#7a332b"/>
  <circle cx="277" cy="469" r="35" fill="#fffaf0"/>
  <path d="M513 530c31-45 92-63 145-42 37 15 62 48 65 85" fill="none" stroke="#7a332b" stroke-width="22" stroke-linecap="round"/>
  <path d="M826 514h188" stroke="#fffaf0" stroke-width="24" stroke-linecap="round"/>
  <path d="M826 458h144" stroke="#4a2320" stroke-width="24" stroke-linecap="round"/>
</svg>
