<svg xmlns="http://www.w3.org/2000/svg" viewBox="0 0 800 520">
  <rect width="800" height="520" fill="#4a2320"/>
  <circle cx="638" cy="114" r="110" fill="#d9a441" opacity="0.18"/>
  <rect x="98" y="76" width="604" height="368" rx="34" fill="#fff8ef"/>
  <circle cx="400" cy="260" r="132" fill="#f5ddb4"/>
  <circle cx="400" cy="260" r="104" fill="#fff8ef"/>
  <path d="M322 262c18-51 98-75 142-36 25 22 27 58 5 84-31 37-108 49-152 21-32-21-30-48 5-69z" fill="#c86b3c"/>
  <path d="M350 206c16-14 51-22 75-7 17 10 22 31 12 47-12 19-39 31-67 30-45-1-61-36-20-70z" fill="#9d4027"/>
</svg>
